<svg id="visual" viewBox="0 0 900 600" width="900" height="600" xmlns="http://www.w3.org/2000/svg" xmlns:xlink="http://www.w3.org/1999/xlink" version="1.1"><rect x="0" y="0" width="900" height="600" fill="#001220"></rect><path d="M0 400L21.5 401.3C43 402.7 86 405.3 128.8 411.3C171.7 417.3 214.3 426.7 257.2 429.7C300 432.7 343 429.3 385.8 424C428.7 418.7 471.3 411.3 514.2 407.7C557 404 600 404 642.8 402.8C685.7 401.7 728.3 399.3 771.2 406.7C814 414 857 431 878.5 439.5L900 448L900 601L878.5 601C857 601 814 601 771.2 601C728.3 601 685.7 601 642.8 601C600 601 557 601 514.2 601C471.3 601 428.7 601 385.8 601C343 601 300 601 257.2 601C214.3 601 171.7 601 128.8 601C86 601 43 601 21.5 601L0 601Z" fill="#fa7268"></path><path d="M0 395L21.5 398.5C43 402 86 409 128.8 417C171.7 425 214.3 434 257.2 437.3C300 440.7 343 438.3 385.8 431.5C428.7 424.7 471.3 413.3 514.2 411.8C557 410.3 600 418.7 642.8 422.2C685.7 425.7 728.3 424.3 771.2 420.5C814 416.7 857 410.3 878.5 407.2L900 404L900 601L878.5 601C857 601 814 601 771.2 601C728.3 601 685.7 601 642.8 601C600 601 557 601 514.2 601C471.3 601 428.7 601 385.8 601C343 601 300 601 257.2 601C214.3 601 171.7 601 128.8 601C86 601 43 601 21.5 601L0 601Z" fill="#ef5f67"></path><path d="M0 500L21.5 491.5C43 483 86 466 128.8 467C171.7 468 214.3 487 257.2 493.2C300 499.3 343 492.7 385.8 487.2C428.7 481.7 471.3 477.3 514.2 470.8C557 464.3 600 455.7 642.8 451.8C685.7 448 728.3 449 771.2 454.2C814 459.3 857 468.7 878.5 473.3L900 478L900 601L878.5 601C857 601 814 601 771.2 601C728.3 601 685.7 601 642.8 601C600 601 557 601 514.2 601C471.3 601 428.7 601 385.8 601C343 601 300 601 257.2 601C214.3 601 171.7 601 128.8 601C86 601 43 601 21.5 601L0 601Z" fill="#e34c67"></path><path d="M0 532L21.5 531.7C43 531.3 86 530.7 128.8 527.5C171.7 524.3 214.3 518.7 257.2 514C300 509.3 343 505.7 385.8 504.5C428.7 503.3 471.3 504.7 514.2 511.2C557 517.7 600 529.3 642.8 528.3C685.7 527.3 728.3 513.7 771.2 506.5C814 499.3 857 498.7 878.5 498.3L900 498L900 601L878.5 601C857 601 814 601 771.2 601C728.3 601 685.7 601 642.8 601C600 601 557 601 514.2 601C471.3 601 428.7 601 385.8 601C343 601 300 601 257.2 601C214.3 601 171.7 601 128.8 601C86 601 43 601 21.5 601L0 601Z" fill="#d53867"></path><path d="M0 563L21.5 558.3C43 553.7 86 544.3 128.8 538.3C171.7 532.3 214.3 529.7 257.2 535C300 540.3 343 553.7 385.8 557.2C428.7 560.7 471.3 554.3 514.2 553.2C557 552 600 556 642.8 559.3C685.7 562.7 728.3 565.3 771.2 563C814 560.7 857 553.3 878.5 549.7L900 546L900 601L878.5 601C857 601 814 601 771.2 601C728.3 601 685.7 601 642.8 601C600 601 557 601 514.2 601C471.3 601 428.7 601 385.8 601C343 601 300 601 257.2 601C214.3 601 171.7 601 128.8 601C86 601 43 601 21.5 601L0 601Z" fill="#c62368"></path></svg>